<svg
      viewBox="0 0 200 200"
      xmlns="http://www.w3.org/2000/svg"
      id="loaderLogo"
    >
      <title>Manish Icon</title>
      <linearGradient id="grad1">
        <stop stop-color="#2c848a" />
        <stop offset="100%" stop-color="#03e9f4" />
      </linearGradient>
      <linearGradient id="grad2">
        <stop stop-color="#e6e6e6" />
        <stop offset="100%" stop-color="#71fff1" />
      </linearGradient>
      <path
        d="M 97.896 27.468 C 99.299 26.895 100.701 26.895 102.104 27.468 L 150.5 47.244 C 151.903 47.817 152.895 48.796 153.476 50.18 L 173.522 97.924 C 174.103 99.308 174.103 100.692 173.522 102.076 L 153.476 149.82 C 152.895 151.204 151.903 152.183 150.5 152.756 L 102.104 172.532 C 100.701 173.105 99.299 173.105 97.896 172.532 L 49.5 152.756 C 48.097 152.183 47.105 151.204 46.524 149.82 L 26.478 102.076 C 25.897 100.692 25.897 99.308 26.478 97.924 L 46.524 50.18 C 47.105 48.796 48.097 47.817 49.5 47.244 L 97.896 27.468 Z"
        stroke="url(#grad1)"
        stroke-width="7"
        stroke-linecap="round"
        stroke-linejoin="round"
        fill="#070707"
        id="logoBoundary"
      ></path>
      <path
        d="M49.66,78.834C49.66,78.834 82.598,64.655 53.882,113.429L45.943,126.408L64.025,96.362C69.264,87.449 74.447,83.773 79.573,85.337C82.841,86.334 83.771,89.623 82.361,95.204L66.138,125.997L81.939,96.305C80.393,99.171 86.03,85.763 96.641,88.762C107.252,91.76 74.757,127.116 89.375,125.318C103.993,123.519 130.529,91.131 130.529,91.131C139.917,79.53 137.153,67.18 125.924,77.39C111.534,90.475 117.377,115.452 154.058,86.234C141.161,116.736 112.689,151.176 102.42,99.525C102.485,105.049 115.812,110.316 121.389,111.2"
        fill="#070707"
        stroke="url(#grad2)"
        id="signature"
        stroke-width="4"
        stroke-linecap="round"
        stroke-linejoin="round"
      ></path>

      <circle r="2.5" fill="white" id="meteor" style="opacity: 0;"/>
</svg>